<?xml version="1.0" encoding="UTF-8"?>
<svg id="Layer_1" xmlns="http://www.w3.org/2000/svg" version="1.1" viewBox="0 0 2000 616.01">
  <!-- Generator: Adobe Illustrator 29.4.0, SVG Export Plug-In . SVG Version: 2.1.0 Build 152)  -->
  <defs>
    <style>
      .st0 {
        isolation: isolate;
      }
    </style>
  </defs>
  <g class="st0">
    <path d="M187.85,325.63c29.95,4.59,50.72,6.39,74.48,6.39,5.99,0,9.19-2,9.19-5.99,0-3.39-2.2-4.59-9.38-4.59h-11.18c-5.39,0-17.37-.8-25.16-1.6-16.77-1.8-26.96-6.39-33.75-15.17-5.19-6.59-7.79-15.38-7.79-25.56,0-15.18,5.39-27.36,15.77-35.14,11.78-8.79,35.34-13.78,66.29-13.78,23.56,0,47.72,2.2,70.29,6.59v39.14c-10.18-1.8-37.54-4.19-53.71-4.59h-14.98c-9.19,0-12.78,1.8-12.78,5.99,0,3.39,2.8,5.39,7.39,5.39l23.96.2c13.78.2,26.56,2,34.34,4.99,12.58,4.79,20.97,17.97,20.97,33.15s-7.79,28.15-20.77,36.34c-13.98,8.79-28.75,11.58-59.3,11.58-26.96,0-45.33-1.6-73.88-6.79v-36.54Z"/>
    <path d="M388.91,366.16v-80.27h-39.94v-52.92h148.56v52.92h-40.13v80.27h-68.49Z"/>
    <path d="M615.14,366.16l-4.79-17.17h-44.53l-4.79,17.17h-69.89l42.53-133.18h108.42l41.93,133.18h-68.89ZM588.58,270.51l-14.38,42.13h28.15l-13.78-42.13Z"/>
    <path d="M853.35,359.17c-31.35,7.39-48.92,9.78-71.88,9.78-27.95,0-48.92-4.39-65.69-13.78-18.77-10.58-28.35-29.35-28.35-56.11,0-23.56,8.39-41.33,24.56-52.71,15.97-11.38,35.94-16.17,65.69-16.17,25.96,0,49.12,2.6,73.48,8.19v46.33c-18.57-3.59-37.74-5.59-54.91-5.59-15.38,0-25.16,2-32.35,6.79-6.59,4.39-10.58,12.58-10.58,21.56,0,16.37,11.58,26.56,29.95,26.56,1.8,0,5.19-.2,8.19-.4v-34.54h61.9v60.1Z"/>
    <path d="M876.5,366.16v-133.18h152.75v42.73h-84.26v12.38h84.26v31.95h-84.26v11.18h84.26v34.94h-152.75Z"/>
    <path d="M1150.05,366.16l-32.75-42.13v42.13h-68.49v-133.18h128.39c16.17,0,25.76,2.4,33.75,8.79,8.99,6.79,14.38,17.97,14.38,29.95s-5.19,22.16-14.58,29.55c-7.59,5.79-14.18,8.19-27.16,9.58l45.93,55.31h-79.47ZM1138.27,296.07c6.99,0,9.78-.6,12.98-2.4,3.99-2.4,6.19-6.99,6.19-12.58,0-8.99-4.19-12.58-15.18-12.58h-24.96v27.55h20.97Z"/>
    <path d="M1361.9,366.16l-4.79-17.17h-44.53l-4.79,17.17h-69.89l42.53-133.18h108.42l41.93,133.18h-68.89ZM1335.34,270.51l-14.38,42.13h28.15l-13.78-42.13Z"/>
    <path d="M1552.58,366.16l-46.33-59.7v59.7h-64.7v-133.18h68.69l37.94,55.71v-55.71h64.7v133.18h-60.3Z"/>
    <path d="M1740.27,366.16l-32.75-42.53v42.53h-68.49v-133.18h68.49v51.32l32.75-51.32h81.07l-55.91,68.49,52.32,64.7h-77.47Z"/>
  </g>
</svg>